Coordinates
version=1
nRows=10
nColumns=33
inDegrees=yes

Units are S.I. units (second, meters, Newtons, ...)
Angles are in degrees.

endheader
time	ground_thorax_rot_x	ground_thorax_rot_y	ground_thorax_rot_z	ground_thorax_tx	ground_thorax_ty	ground_thorax_tz	clav_prot_r	clav_elev_r	scapula_abduction_r	scapula_elevation_r	scapula_upward_rot_r	scapula_winging_r	shoulder_elv_r	plane_of_elev_r	axial_rot_r	elbow_flexion_r	pro_sup_r	wrist_flex_r	wrist_dev_r	clav_prot_l	clav_elev_l	scapula_abduction_l	scapula_elevation_l	scapula_upward_rot_l	scapula_winging_l	shoulder_elv_l	plane_of_elev_l	axial_rot_l	elbow_flexion_l	pro_sup_l	wrist_flex_l	wrist_dev_l
      4.42000000	     -5.63665781	      7.51581134	      8.75293858	     -0.08325650	      1.02852240	      0.00685393	     17.69485299	    -13.69104302	     44.37274450	    -14.16129953	     24.49063756	    -12.40198917	      0.31485601	    -54.10212777	    122.34891850	    -31.64367514	   -147.01930397	      0.61008609	      0.54573490	     26.20836175	     -9.54046331	    -39.71691208	     -6.31496459	    -23.16216169	     14.32163108	     59.20081357	      2.60513241	     10.62864931	     17.85374909	     18.12499108	     22.21510456	     -6.49674157
      4.43000000	     -5.52231662	      7.35622203	      8.55360052	     -0.08213613	      1.02872011	      0.00706372	     17.73888269	    -13.39647206	     44.70908336	    -13.99809059	     24.85860293	    -12.70092426	      0.20381531	    -54.18154586	    122.60210210	    -31.50432162	   -147.17364571	      0.58312999	      0.56815431	     26.23347131	     -9.73923448	    -39.75809758	     -5.99902507	    -22.83920624	     14.31993865	     59.12446477	      3.02168660	     10.55122524	     16.44987391	     18.21561062	     21.90566399	     -6.00215617
      4.44000000	     -5.43919581	      7.11386062	      8.36722727	     -0.08103028	      1.02886274	      0.00734966	     17.79105803	    -13.13168537	     45.00000000	    -13.84016894	     25.14393853	    -12.96907904	      0.05704761	    -54.25324114	    122.79411552	    -31.45849935	   -147.35629835	      0.66944084	      0.64542539	     26.27280020	     -9.89265303	    -39.81995598	     -5.78486021	    -22.65662505	     14.33388199	     59.11573369	      3.24923649	     10.61326176	     15.50201243	     18.21405200	     21.49027123	     -5.71081001
      4.45000000	     -5.30796722	      6.95807267	      8.18821206	     -0.08002478	      1.02906072	      0.00768683	     17.68040088	    -12.82491175	     45.00000000	    -13.63702905	     25.36334210	    -13.12449684	     -0.08204321	    -54.29000741	    122.97053454	    -31.38978974	   -147.69944662	      0.83811487	      0.83150862	     26.34620781	    -10.09943997	    -39.93114476	     -5.52334461	    -22.47292920	     14.36459458	     59.09612982	      3.51129073	     10.60981825	     14.45095600	     18.16629039	     20.92671370	     -5.45113087
      4.46000000	     -5.38455296	      6.66986294	      8.07341260	     -0.07914865	      1.02909856	      0.00801853	     17.66378015	    -12.73384662	     45.00000000	    -13.56756658	     25.39221875	    -13.17813474	     -0.24494929	    -54.22454488	    123.07098816	    -31.41859084	   -147.83950632	      0.91226382	      0.92661603	     26.40371255	    -10.12238820	    -40.02802918	     -5.47215125	    -22.41022469	     14.42151488	     59.22999554	      3.44381384	     10.57533271	     14.06486252	     18.14978378	     20.75649929	     -5.37779009
      4.47000000	     -5.06888424	      6.59554011	      7.77263531	     -0.07839626	      1.02886393	      0.00842876	     17.43700137	    -12.04011868	     45.00000000	    -13.09693847	     25.84050265	    -13.53284214	     -0.49184635	    -54.36289245	    123.17149750	    -31.32855782	   -150.00604493	      1.57211545	      2.00014493	     26.56790834	    -10.24220555	    -40.29505364	     -5.29839310	    -22.27167034	     14.56873817	     59.00755036	      3.89024418	     10.32347387	     13.14486429	     17.40813293	     18.97935652	     -5.34272471
      4.48000000	     -5.04251017	      6.26928999	      7.68995384	     -0.07782712	      1.02892390	      0.00872510	     17.44958055	    -12.02173056	     45.00000000	    -13.07264161	     25.80951958	    -13.55228842	     -0.51078713	    -54.39403640	    123.12285420	    -31.33904344	   -150.05619322	      1.57734244	      2.00195234	     26.59884643	    -10.23189199	    -40.34447526	     -5.31510480	    -22.29337213	     14.59880273	     59.03448281	      3.80143900	     10.28714976	     12.97855483	     17.40486396	     18.96919688	     -5.31144024
      4.49000000	     -5.03115982	      5.97002801	      7.61051749	     -0.07754027	      1.02891751	      0.00904438	     17.46531984	    -11.98355708	     45.00000000	    -13.03044456	     25.76982027	    -13.58568453	     -0.54715945	    -54.41079097	    123.07274760	    -31.37529543	   -150.14389795	      1.59416448	      2.03264781	     26.62789307	    -10.22642017	    -40.39379874	     -5.31140109	    -22.27974679	     14.63109527	     59.09529622	      3.70861729	     10.25262777	     12.76438923	     17.39774213	     18.94902810	     -5.27152685
      4.50000000	     -4.83356012	      5.87639613	      7.59873713	     -0.07730008	      1.02851008	      0.00961656	     17.46590157	    -11.45724532	     45.00000000	    -12.57352977	     25.72230948	    -13.91349844	     -1.13808269	    -54.50528925	    122.66032386	    -31.73352711	   -154.20604966	      2.03938915	      3.67855447	     26.58593657	    -10.36349155	    -40.33851361	     -5.04765704	    -21.94651639	     14.58151206	     58.84125321	      3.58373760	      9.54963180	     12.03021780	     16.09916374	     17.99467052	     -5.27945562
      4.51000000	     -4.79372353	      5.59165023	      7.51396410	     -0.07737246	      1.02842918	      0.00987157	     17.45659324	    -11.42969843	     44.98270339	    -12.54835904	     25.71466705	    -13.92337261	     -1.11462011	    -54.54430655	    122.60563911	    -31.78108130	   -154.25553821	      2.04577847	      3.66043719	     26.60405424	    -10.32919656	    -40.37249404	     -5.08016893	    -21.95820062	     14.61304218	     58.88784726	      3.50658595	      9.53682398	     11.92838384	     16.08707429	     17.98740835	     -5.25561924
